<svg width="79" height="35" fill="none" xmlns="http://www.w3.org/2000/svg"><path d="M78.018 15.361c.075.087.135.23.179.428.153.694-.333 1.408-1.46 2.143-1.08.69-2.583 1.249-4.507 1.675a25.47 25.47 0 01-3.25.513c-1.63-.02-2.794.047-3.488.201-1.045.093-4.776.21-11.193.35-6.417.14-9.885.182-10.402.123-.03-.132-.216-.212-.558-.24a4.798 4.798 0 00-1.236.118 7.315 7.315 0 01-1.476.171c-.564-.013-.967-.063-1.21-.147-.16.035-.462.067-.904.096-.45-.004-.754.011-.915.047-.107.024-.301.032-.583.025-.343-.028-.594-.024-.754.012-1.835-.183-7.476-.336-16.924-.46-9.455-.156-14.503-.163-15.144-.02-.428.094-.896.007-1.404-.261-.561-.257-.875-.534-.94-.831-.305-.106-.497-.34-.577-.704l1.107-1.077c.407-.437.93-.865 1.566-1.283.636-.419 1.248-.693 1.836-.823.801-.178 1.51-.266 2.128-.264.617.002 1.893.065 3.827.191.396.016.88.048 1.451.094a28.35 28.35 0 001.965.136l5.518.233c6.177.294 9.4.411 9.667.352.16-.036.522-.047 1.086-.033.51.025 1.044.028 1.6.01.914.074 2.532.166 4.855.274 2.262.088 3.5.108 3.714.06.588-.13 1.034-.142 1.338-.036.022.1.17.136.445.11.22-.015.385-.034.492-.058.534-.118 2.009-.168 4.424-.149a2466.07 2466.07 0 0017.003-.702c4.718-.215 7.72-.464 9.002-.748 1.122-.25 1.923-.305 2.402-.169.471.103.911.318 1.32.643z" fill="#fff"/></svg>