<?xml version="1.0" standalone="no"?>
<!DOCTYPE svg PUBLIC "-//W3C//DTD SVG 20010904//EN"
 "http://www.w3.org/TR/2001/REC-SVG-20010904/DTD/svg10.dtd">
<svg version="1.0" xmlns="http://www.w3.org/2000/svg"
 width="512.000000pt" height="512.000000pt" viewBox="0 0 512.000000 512.000000"
 preserveAspectRatio="xMidYMid meet">
<metadata>
Created by potrace 1.11, written by Peter Selinger 2001-2013
</metadata>
<g transform="translate(0.000000,512.000000) scale(0.100000,-0.100000)"
fill="#000000" stroke="none">
<path d="M445 5101 c-38 -10 -90 -27 -115 -38 -111 -50 -225 -166 -275 -278
-58 -130 -55 -9 -55 -2228 0 -1993 0 -2035 20 -2111 53 -210 210 -369 415
-421 52 -13 308 -15 2125 -15 1805 0 2073 2 2129 15 157 37 301 154 371 299
21 45 43 105 49 134 8 37 11 662 11 2105 0 1793 -2 2060 -15 2116 -37 155
-156 306 -296 375 -145 70 2 66 -2257 65 -1903 0 -2042 -2 -2107 -18z m918
-2044 c307 -275 555 -503 550 -507 -4 -4 -265 -236 -578 -516 -314 -280 -578
-515 -588 -523 -16 -13 -17 42 -17 1049 l0 1062 38 -33 c20 -18 288 -257 595
-532z m1326 8 c308 -275 560 -502 560 -505 1 -6 -1168 -1053 -1181 -1058 -4
-2 -8 474 -8 1058 l0 1062 35 -29 c19 -15 286 -253 594 -528z m1481 -134 c223
-199 406 -366 408 -370 1 -4 -248 -232 -555 -506 -307 -274 -573 -512 -590
-529 l-33 -30 0 1062 0 1063 183 -164 c100 -90 364 -327 587 -526z"/>
</g>
</svg>
